<svg width="24" height="24" viewBox="0 0 24 24" fill="none" xmlns="http://www.w3.org/2000/svg">
<path d="M14.8799 2.40004H21.5999V9.12004H14.8799V2.40004ZM5.75992 1.92004C4.74149 1.92004 3.76477 2.32461 3.04463 3.04475C2.32449 3.76489 1.91992 4.74161 1.91992 5.76004C1.91992 6.77848 2.32449 7.75519 3.04463 8.47533C3.76477 9.19547 4.74149 9.60004 5.75992 9.60004C6.77835 9.60004 7.75507 9.19547 8.47521 8.47533C9.19535 7.75519 9.59992 6.77848 9.59992 5.76004C9.59992 4.74161 9.19535 3.76489 8.47521 3.04475C7.75507 2.32461 6.77835 1.92004 5.75992 1.92004ZM5.75992 14.4C4.74149 14.4 3.76477 14.8046 3.04463 15.5248C2.32449 16.2449 1.91992 17.2216 1.91992 18.24C1.91992 19.2585 2.32449 20.2352 3.04463 20.9553C3.76477 21.6755 4.74149 22.08 5.75992 22.08C6.77835 22.08 7.75507 21.6755 8.47521 20.9553C9.19535 20.2352 9.59992 19.2585 9.59992 18.24C9.59992 17.2216 9.19535 16.2449 8.47521 15.5248C7.75507 14.8046 6.77835 14.4 5.75992 14.4ZM18.2399 14.4C17.2215 14.4 16.2448 14.8046 15.5246 15.5248C14.8045 16.2449 14.3999 17.2216 14.3999 18.24C14.3999 19.2585 14.8045 20.2352 15.5246 20.9553C16.2448 21.6755 17.2215 22.08 18.2399 22.08C19.2584 22.08 20.2351 21.6755 20.9552 20.9553C21.6754 20.2352 22.0799 19.2585 22.0799 18.24C22.0799 17.2216 21.6754 16.2449 20.9552 15.5248C20.2351 14.8046 19.2584 14.4 18.2399 14.4Z" stroke="black" stroke-width="1.6" stroke-miterlimit="10" stroke-linejoin="round"/>
</svg>
