<svg width="1440" height="319" viewBox="0 0 1440 319" fill="none" xmlns="http://www.w3.org/2000/svg">
<g opacity="0.01" clip-path="url(#clip0_115_3352)">
<path fill-rule="evenodd" clip-rule="evenodd" d="M238.845 73.9811C229.706 77.5214 215.457 88.1691 203.681 99.2447C190.126 111.993 179.848 125.308 184.408 129.007C184.408 129.007 142.672 100.034 182.067 78.163C187.007 75.4219 191.48 72.3896 195.526 69.1218C203.78 62.4573 210.256 54.8082 215.292 46.6238L177.581 2.82837L195.526 69.1217L177.581 2.82783L148.219 162.299L211.684 128.808L203.681 99.2447L211.685 128.808L283.375 125.701L238.845 73.9811L238.845 73.9811ZM1177.81 227.855C1168.67 231.396 1154.43 242.044 1142.65 253.119C1129.1 265.867 1118.82 279.183 1123.38 282.881C1123.38 282.881 1081.64 253.908 1121.03 232.038C1125.98 229.296 1130.45 226.265 1134.49 222.996C1142.75 216.332 1149.22 208.683 1154.26 200.498L1116.55 156.703L1134.49 222.996L1116.55 156.703L1087.19 316.173L1150.65 282.683L1142.65 253.119L1150.65 282.683L1222.34 279.576L1177.81 227.855V227.855ZM1323.21 217.551C1314.07 221.091 1299.82 231.739 1288.04 242.815C1274.49 255.562 1264.21 268.877 1268.77 272.576C1268.77 272.576 1227.03 243.603 1266.43 221.733C1271.37 218.992 1275.84 215.96 1279.89 212.692C1288.14 206.027 1294.62 198.378 1299.65 190.193L1261.94 146.398L1279.89 212.692L1261.94 146.397L1232.58 305.868L1296.05 272.378L1288.04 242.815L1296.05 272.378L1367.74 269.271L1323.21 217.551V217.551ZM891.585 227.855C882.446 231.396 868.197 242.044 856.421 253.119C842.866 265.867 832.587 279.183 837.147 282.881C837.147 282.881 795.412 253.908 834.806 232.038C839.746 229.296 844.219 226.265 848.266 222.996C856.519 216.332 862.995 208.683 868.032 200.498L830.32 156.703L848.266 222.996L830.32 156.703L800.959 316.173L864.424 282.683L856.421 253.119L864.425 282.683L936.115 279.576L891.585 227.855V227.855ZM1036.98 217.551C1027.84 221.091 1013.59 231.739 1001.81 242.815C988.259 255.562 977.98 268.877 982.541 272.576C982.541 272.576 940.804 243.603 980.199 221.733C985.139 218.992 989.612 215.96 993.659 212.692C1001.91 206.027 1008.39 198.378 1013.42 190.193L975.713 146.398L993.659 212.692L975.712 146.397L946.351 305.868L1009.82 272.378L1001.81 242.815L1009.82 272.378L1081.51 269.271L1036.98 217.551V217.551ZM1247.25 84.2853C1238.11 87.8261 1223.86 98.4738 1212.09 109.55C1198.53 122.298 1188.25 135.613 1192.81 139.311C1192.81 139.311 1151.08 110.338 1190.47 88.4683C1195.41 85.7266 1199.89 82.6949 1203.93 79.427C1212.19 72.7625 1218.66 65.1129 1223.7 56.9285L1185.99 13.1331L1203.93 79.427L1185.99 13.1326L1156.62 172.603L1220.09 139.113L1212.09 109.55L1220.09 139.113L1291.78 136.007L1247.25 84.2853V84.2853ZM1392.64 73.9811C1383.51 77.5214 1369.26 88.1691 1357.48 99.2447C1343.93 111.993 1333.65 125.308 1338.21 129.007C1338.21 129.007 1296.47 100.034 1335.86 78.163C1340.81 75.4219 1345.28 72.3896 1349.32 69.1218C1357.58 62.4573 1364.05 54.8082 1369.09 46.6238L1331.38 2.82837L1349.32 69.1217L1331.38 2.82783L1302.02 162.299L1365.48 128.808L1357.48 99.2447L1365.48 128.808L1437.17 125.701L1392.64 73.9811V73.9811ZM958.274 84.2853C949.136 87.8261 934.886 98.4738 923.111 109.55C909.556 122.298 899.278 135.613 903.838 139.311C903.838 139.311 862.101 110.338 901.496 88.4683C906.436 85.7266 910.909 82.6949 914.956 79.427C923.209 72.7625 929.685 65.1129 934.722 56.9285L897.011 13.1331L914.956 79.427L897.01 13.1326L867.648 172.603L931.114 139.113L923.111 109.55L931.114 139.113L1002.8 136.007L958.274 84.2853V84.2853ZM1106.42 73.9811C1097.28 77.5214 1083.03 88.1691 1071.25 99.2447C1057.7 111.993 1047.42 125.308 1051.98 129.007C1051.98 129.007 1010.24 100.034 1049.64 78.163C1054.58 75.4219 1059.05 72.3896 1063.1 69.1218C1071.35 62.4573 1077.83 54.8082 1082.86 46.6238L1045.15 2.82837L1063.1 69.1217L1045.15 2.82783L1015.79 162.299L1079.25 128.808L1071.25 99.2447L1079.25 128.808L1150.94 125.701L1106.42 73.9811V73.9811ZM602.307 227.855C593.169 231.396 578.92 242.044 567.144 253.119C553.589 265.867 543.31 279.183 547.87 282.881C547.87 282.881 506.134 253.908 545.529 232.038C550.469 229.296 554.942 226.265 558.989 222.996C567.241 216.332 573.718 208.683 578.755 200.498L541.043 156.703L558.989 222.996L541.042 156.703L511.681 316.173L575.147 282.683L567.144 253.119L575.147 282.683L646.837 279.576L602.307 227.855V227.855ZM747.7 217.551C738.561 221.091 724.312 231.739 712.537 242.815C698.981 255.562 688.703 268.877 693.263 272.576C693.263 272.576 651.527 243.603 690.922 221.733C695.862 218.992 700.335 215.96 704.381 212.692C712.634 206.027 719.111 198.378 724.147 190.193L686.436 146.398L704.381 212.692L686.436 146.397L657.074 305.868L720.539 272.378L712.537 242.815L720.54 272.378L792.23 269.271L747.7 217.551V217.551ZM316.079 227.855C306.94 231.396 292.691 242.044 280.915 253.119C267.36 265.867 257.082 279.183 261.642 282.881C261.642 282.881 219.906 253.908 259.3 232.038C264.24 229.296 268.714 226.265 272.76 222.996C281.013 216.332 287.489 208.683 292.526 200.498L254.815 156.703L272.76 222.996L254.814 156.703L225.452 316.173L288.918 282.683L280.915 253.119L288.918 282.683L360.608 279.576L316.079 227.855V227.855ZM461.471 217.551C452.332 221.091 438.083 231.739 426.308 242.815C412.753 255.562 402.474 268.877 407.034 272.576C407.034 272.576 365.298 243.603 404.693 221.733C409.633 218.992 414.106 215.96 418.152 212.692C426.406 206.027 432.882 198.378 437.918 190.193L400.207 146.398L418.152 212.692L400.207 146.397L370.845 305.868L434.31 272.378L426.308 242.815L434.311 272.378L506.002 269.271L461.471 217.551V217.551ZM671.745 84.2853C662.606 87.8261 648.357 98.4738 636.581 109.55C623.027 122.298 612.748 135.613 617.308 139.311C617.308 139.311 575.572 110.338 614.966 88.4683C619.907 85.7266 624.38 82.6949 628.426 79.427C636.679 72.7625 643.155 65.1129 648.192 56.9285L610.481 13.1331L628.426 79.427L610.48 13.1326L581.119 172.603L644.584 139.113L636.581 109.55L644.585 139.113L716.275 136.007L671.745 84.2853V84.2853ZM817.138 73.9811C807.999 77.5214 793.749 88.1691 781.974 99.2447C768.419 111.993 758.141 125.308 762.701 129.007C762.701 129.007 720.964 100.034 760.359 78.163C765.299 75.4219 769.772 72.3896 773.819 69.1218C782.072 62.4573 788.548 54.8082 793.585 46.6238L755.873 2.82837L773.819 69.1217L755.873 2.82783L726.511 162.299L789.977 128.808L781.974 99.2447L789.977 128.808L861.668 125.701L817.138 73.9811V73.9811ZM385.516 84.2853C376.377 87.8261 362.128 98.4738 350.353 109.55C336.798 122.298 326.519 135.613 331.079 139.311C331.079 139.311 289.343 110.338 328.738 88.4683C333.677 85.7266 338.151 82.6949 342.198 79.427C350.45 72.7625 356.926 65.1129 361.963 56.9285L324.252 13.1331L342.198 79.427L324.251 13.1326L294.89 172.603L358.356 139.113L350.353 109.55L358.356 139.113L430.046 136.007L385.516 84.2853V84.2853ZM530.909 73.9811C521.77 77.5214 507.521 88.1691 495.745 99.2447C482.19 111.993 471.912 125.308 476.472 129.007C476.472 129.007 434.735 100.034 474.131 78.163C479.07 75.4219 483.543 72.3896 487.59 69.1218C495.843 62.4573 502.32 54.8082 507.356 46.6238L469.644 2.82837L487.59 69.1217L469.644 2.82783L440.283 162.299L503.748 128.808L495.745 99.2447L503.749 128.808L575.439 125.701L530.909 73.9811V73.9811ZM169.407 217.551C160.268 221.091 146.019 231.739 134.244 242.815C120.69 255.562 110.41 268.877 114.97 272.576C114.97 272.576 73.2341 243.603 112.629 221.733C117.569 218.992 122.042 215.96 126.089 212.692C134.342 206.027 140.818 198.378 145.854 190.193L108.143 146.398L126.089 212.692L108.143 146.397L78.7812 305.868L142.247 272.378L134.244 242.815L142.247 272.378L213.938 269.271L169.407 217.551V217.551ZM93.4522 84.2853C84.3134 87.8261 70.0644 98.4738 58.2885 109.55C44.734 122.298 34.4548 135.613 39.0154 139.311C39.0154 139.311 -2.72097 110.338 36.6736 88.4683C41.614 85.7266 46.0875 82.6949 50.1337 79.427C58.3863 72.7625 64.8629 65.1129 69.8994 56.9285L32.1884 13.1331L50.1337 79.427L32.1879 13.1326L2.82617 172.603L66.2917 139.113L58.2885 109.55L66.2922 139.113L137.982 136.007L93.4522 84.2853L93.4522 84.2853Z" stroke="#F5F8FC" stroke-width="3.99987" stroke-miterlimit="22.9256" stroke-linecap="round" stroke-linejoin="round"/>
</g>
<defs>
<clipPath id="clip0_115_3352">
<rect width="1440" height="319" fill="white"/>
</clipPath>
</defs>
</svg>
