<svg width="24" height="24" viewBox="0 0 24 24" fill="none" xmlns="http://www.w3.org/2000/svg">
<circle cx="7" cy="17" r="2" stroke="white" stroke-width="2" stroke-linecap="round" stroke-linejoin="round"/>
<circle cx="17" cy="17" r="2" stroke="white" stroke-width="2" stroke-linecap="round" stroke-linejoin="round"/>
<path d="M5 18C5.55228 18 6 17.5523 6 17C6 16.4477 5.55228 16 5 16V18ZM3 17H2C2 17.5523 2.44772 18 3 18V17ZM3 11L2.07152 10.6286C2.02428 10.7467 2 10.8728 2 11H3ZM5 6V5C4.5911 5 4.22339 5.24895 4.07152 5.62861L5 6ZM14 6L14.7809 5.3753C14.5911 5.13809 14.3038 5 14 5V6ZM18 11L17.2191 11.6247C17.4089 11.8619 17.6962 12 18 12V11ZM21 17V18C21.5523 18 22 17.5523 22 17H21ZM19 16C18.4477 16 18 16.4477 18 17C18 17.5523 18.4477 18 19 18V16ZM15 18C15.5523 18 16 17.5523 16 17C16 16.4477 15.5523 16 15 16V18ZM9 16C8.44772 16 8 16.4477 8 17C8 17.5523 8.44772 18 9 18V16ZM3 10C2.44772 10 2 10.4477 2 11C2 11.5523 2.44772 12 3 12V10ZM18 12C18.5523 12 19 11.5523 19 11C19 10.4477 18.5523 10 18 10V12ZM11 11C11 11.5523 11.4477 12 12 12C12.5523 12 13 11.5523 13 11H11ZM13 6C13 5.44772 12.5523 5 12 5C11.4477 5 11 5.44772 11 6H13ZM5 16H3V18H5V16ZM4 17V11H2V17H4ZM3.92848 11.3714L5.92848 6.37139L4.07152 5.62861L2.07152 10.6286L3.92848 11.3714ZM5 7H14V5H5V7ZM13.2191 6.6247L17.2191 11.6247L18.7809 10.3753L14.7809 5.3753L13.2191 6.6247ZM18 12H19V10H18V12ZM19 12C19.5523 12 20 12.4477 20 13H22C22 11.3431 20.6569 10 19 10V12ZM20 13V17H22V13H20ZM21 16H19V18H21V16ZM15 16H9V18H15V16ZM3 12H18V10H3V12ZM13 11V6H11V11H13Z" fill="white"/>
</svg>
