<svg width="20" height="20" viewBox="0 0 20 20" fill="none" xmlns="http://www.w3.org/2000/svg">
<path d="M12.7383 3.33337C10.9851 3.33337 9.56384 4.82576 9.56384 6.66671C9.56384 6.94489 9.59629 7.21512 9.65744 7.47344C7.75 7.47344 4.75 7.03708 2.5 4.07411C2.5 11.4815 5.5 13.5803 7 13.7037C5.875 14.8149 4.12208 15.6373 2.5 15.792C3.19786 16.4255 5.38369 16.6391 6.38937 16.6667C11.5901 16.6667 15.8171 12.2893 15.9112 6.85195C16.9086 6.2033 17.3823 4.44484 17.5 4.07411C17.0141 4.58437 16 4.81486 15.1919 4.55155C14.6097 3.80776 13.7268 3.33337 12.7383 3.33337Z" stroke="white" stroke-width="1.2" stroke-linejoin="round"/>
</svg>
