<svg width="24" height="24" viewBox="0 0 24 24" fill="none" xmlns="http://www.w3.org/2000/svg">
<path fill-rule="evenodd" clip-rule="evenodd" d="M12 0C5.37258 0 0 5.37258 0 12C0 18.6274 5.37258 24 12 24C18.6274 24 24 18.6274 24 12C24 5.37258 18.6274 0 12 0ZM9.13608 7.45041C9.13608 8.25145 8.43405 8.90083 7.56804 8.90083C6.70204 8.90083 6 8.25145 6 7.45041C6 6.64937 6.70204 6 7.56804 6C8.43405 6 9.13608 6.64937 9.13608 7.45041ZM6.21443 9.96694H8.89485V18H6.21443V9.96694ZM10.5299 9.96694H13.2103V10.9976C13.6602 10.4315 14.524 9.80579 15.9175 9.80579C18.264 9.80579 18.9773 11.0532 19 13.7603V18H16.3196C16.3196 17.4761 16.3159 16.9493 16.3122 16.4227V16.4226V16.4226C16.307 15.6758 16.3018 14.9294 16.3071 14.1918C16.314 13.2296 16.3229 11.9876 14.8454 11.9876C13.538 11.9876 13.2103 12.9408 13.2103 13.8899V18H10.5299V9.96694Z" fill="white"/>
</svg>
